<mxfile host="app.diagrams.net" agent="Mozilla/5.0 (Windows NT 10.0; Win64; x64) AppleWebKit/537.36 (KHTML, like Gecko) Chrome/128.0.0.0 Safari/537.36" version="24.7.10">
  <diagram name="Page-1" id="nMBbxDUjAfHUpeJspCzN">
    <mxGraphModel dx="2214" dy="852" grid="1" gridSize="10" guides="1" tooltips="1" connect="1" arrows="1" fold="1" page="1" pageScale="1" pageWidth="827" pageHeight="1169" math="0" shadow="0">
      <root>
        <mxCell id="0" />
        <mxCell id="1" parent="0" />
        <mxCell id="_SpvPNpIJ2IMHcFdNzPI-2" value="고객" style="whiteSpace=wrap;html=1;align=center;" vertex="1" parent="1">
          <mxGeometry x="240" y="220" width="100" height="40" as="geometry" />
        </mxCell>
        <mxCell id="_SpvPNpIJ2IMHcFdNzPI-3" value="전화번호" style="ellipse;whiteSpace=wrap;html=1;align=center;fontStyle=4;" vertex="1" parent="1">
          <mxGeometry x="280" y="88" width="100" height="40" as="geometry" />
        </mxCell>
        <mxCell id="_SpvPNpIJ2IMHcFdNzPI-4" value="이메일" style="ellipse;whiteSpace=wrap;html=1;align=center;fontStyle=4;" vertex="1" parent="1">
          <mxGeometry x="348" y="140" width="100" height="40" as="geometry" />
        </mxCell>
        <mxCell id="_SpvPNpIJ2IMHcFdNzPI-5" value="고객명" style="ellipse;whiteSpace=wrap;html=1;align=center;" vertex="1" parent="1">
          <mxGeometry x="58" y="133" width="100" height="40" as="geometry" />
        </mxCell>
        <mxCell id="_SpvPNpIJ2IMHcFdNzPI-6" value="&lt;font color=&quot;#ff3333&quot;&gt;주소&lt;/font&gt;" style="ellipse;whiteSpace=wrap;html=1;align=center;" vertex="1" parent="1">
          <mxGeometry x="10" y="220" width="100" height="40" as="geometry" />
        </mxCell>
        <mxCell id="_SpvPNpIJ2IMHcFdNzPI-7" value="&lt;font color=&quot;#ff0000&quot;&gt;지역&lt;/font&gt;" style="ellipse;whiteSpace=wrap;html=1;align=center;" vertex="1" parent="1">
          <mxGeometry x="70" y="310" width="100" height="40" as="geometry" />
        </mxCell>
        <mxCell id="_SpvPNpIJ2IMHcFdNzPI-9" value="가입일" style="ellipse;whiteSpace=wrap;html=1;align=center;" vertex="1" parent="1">
          <mxGeometry x="200" y="340" width="100" height="40" as="geometry" />
        </mxCell>
        <mxCell id="_SpvPNpIJ2IMHcFdNzPI-10" value="상세주소" style="ellipse;whiteSpace=wrap;html=1;align=center;" vertex="1" parent="1">
          <mxGeometry x="-149" y="260" width="100" height="40" as="geometry" />
        </mxCell>
        <mxCell id="_SpvPNpIJ2IMHcFdNzPI-11" value="기본주소" style="ellipse;whiteSpace=wrap;html=1;align=center;" vertex="1" parent="1">
          <mxGeometry x="-150" y="190" width="100" height="40" as="geometry" />
        </mxCell>
        <mxCell id="_SpvPNpIJ2IMHcFdNzPI-13" value="&lt;font color=&quot;#ff0000&quot;&gt;고객코드&lt;/font&gt;" style="ellipse;whiteSpace=wrap;html=1;align=center;fontStyle=4;" vertex="1" parent="1">
          <mxGeometry x="158" y="76" width="100" height="40" as="geometry" />
        </mxCell>
        <mxCell id="_SpvPNpIJ2IMHcFdNzPI-19" value="" style="endArrow=none;html=1;rounded=0;entryX=0.5;entryY=0;entryDx=0;entryDy=0;exitX=1;exitY=1;exitDx=0;exitDy=0;" edge="1" parent="1" source="_SpvPNpIJ2IMHcFdNzPI-5" target="_SpvPNpIJ2IMHcFdNzPI-2">
          <mxGeometry relative="1" as="geometry">
            <mxPoint x="210" y="149.41" as="sourcePoint" />
            <mxPoint x="370" y="149.41" as="targetPoint" />
          </mxGeometry>
        </mxCell>
        <mxCell id="_SpvPNpIJ2IMHcFdNzPI-24" value="" style="endArrow=none;html=1;rounded=0;entryX=0.5;entryY=0;entryDx=0;entryDy=0;exitX=0.5;exitY=1;exitDx=0;exitDy=0;" edge="1" parent="1" source="_SpvPNpIJ2IMHcFdNzPI-3" target="_SpvPNpIJ2IMHcFdNzPI-2">
          <mxGeometry relative="1" as="geometry">
            <mxPoint x="240" y="179.41" as="sourcePoint" />
            <mxPoint x="320" y="250" as="targetPoint" />
          </mxGeometry>
        </mxCell>
        <mxCell id="_SpvPNpIJ2IMHcFdNzPI-28" value="" style="endArrow=none;html=1;rounded=0;entryX=0.5;entryY=0;entryDx=0;entryDy=0;exitX=0;exitY=0.5;exitDx=0;exitDy=0;" edge="1" parent="1" source="_SpvPNpIJ2IMHcFdNzPI-4" target="_SpvPNpIJ2IMHcFdNzPI-2">
          <mxGeometry relative="1" as="geometry">
            <mxPoint x="360" y="200" as="sourcePoint" />
            <mxPoint x="330" y="260" as="targetPoint" />
          </mxGeometry>
        </mxCell>
        <mxCell id="_SpvPNpIJ2IMHcFdNzPI-29" value="" style="endArrow=none;html=1;rounded=0;entryX=0.5;entryY=0;entryDx=0;entryDy=0;exitX=0;exitY=1;exitDx=0;exitDy=0;" edge="1" parent="1" source="_SpvPNpIJ2IMHcFdNzPI-13" target="_SpvPNpIJ2IMHcFdNzPI-2">
          <mxGeometry relative="1" as="geometry">
            <mxPoint x="390" y="200" as="sourcePoint" />
            <mxPoint x="300" y="230" as="targetPoint" />
          </mxGeometry>
        </mxCell>
        <mxCell id="_SpvPNpIJ2IMHcFdNzPI-30" value="" style="endArrow=none;html=1;rounded=0;entryX=0.5;entryY=1;entryDx=0;entryDy=0;exitX=0.5;exitY=0;exitDx=0;exitDy=0;" edge="1" parent="1" source="_SpvPNpIJ2IMHcFdNzPI-9" target="_SpvPNpIJ2IMHcFdNzPI-2">
          <mxGeometry relative="1" as="geometry">
            <mxPoint x="360" y="320" as="sourcePoint" />
            <mxPoint x="309" y="270" as="targetPoint" />
          </mxGeometry>
        </mxCell>
        <mxCell id="_SpvPNpIJ2IMHcFdNzPI-31" value="" style="endArrow=none;html=1;rounded=0;exitX=1;exitY=0.5;exitDx=0;exitDy=0;" edge="1" parent="1" source="_SpvPNpIJ2IMHcFdNzPI-7">
          <mxGeometry relative="1" as="geometry">
            <mxPoint x="370" y="330" as="sourcePoint" />
            <mxPoint x="290" y="260" as="targetPoint" />
          </mxGeometry>
        </mxCell>
        <mxCell id="_SpvPNpIJ2IMHcFdNzPI-32" value="" style="endArrow=none;html=1;rounded=0;entryX=0;entryY=0.5;entryDx=0;entryDy=0;exitX=1;exitY=0.5;exitDx=0;exitDy=0;" edge="1" parent="1" source="_SpvPNpIJ2IMHcFdNzPI-6" target="_SpvPNpIJ2IMHcFdNzPI-2">
          <mxGeometry relative="1" as="geometry">
            <mxPoint x="380" y="340" as="sourcePoint" />
            <mxPoint x="329" y="290" as="targetPoint" />
          </mxGeometry>
        </mxCell>
        <mxCell id="_SpvPNpIJ2IMHcFdNzPI-33" value="" style="endArrow=none;html=1;rounded=0;entryX=0.592;entryY=1.01;entryDx=0;entryDy=0;exitX=0;exitY=0.5;exitDx=0;exitDy=0;entryPerimeter=0;" edge="1" parent="1" source="_SpvPNpIJ2IMHcFdNzPI-6">
          <mxGeometry relative="1" as="geometry">
            <mxPoint x="1" y="260" as="sourcePoint" />
            <mxPoint x="-50" y="210" as="targetPoint" />
          </mxGeometry>
        </mxCell>
        <mxCell id="_SpvPNpIJ2IMHcFdNzPI-34" value="" style="endArrow=none;html=1;rounded=0;entryX=1;entryY=0.5;entryDx=0;entryDy=0;" edge="1" parent="1">
          <mxGeometry relative="1" as="geometry">
            <mxPoint x="10" y="240" as="sourcePoint" />
            <mxPoint x="-49.999999999995" y="280" as="targetPoint" />
          </mxGeometry>
        </mxCell>
        <mxCell id="_SpvPNpIJ2IMHcFdNzPI-36" value="지역" style="whiteSpace=wrap;html=1;align=center;" vertex="1" parent="1">
          <mxGeometry x="70" y="544.5" width="100" height="40" as="geometry" />
        </mxCell>
        <mxCell id="_SpvPNpIJ2IMHcFdNzPI-37" value="지역명" style="ellipse;whiteSpace=wrap;html=1;align=center;" vertex="1" parent="1">
          <mxGeometry x="-160" y="490" width="100" height="40" as="geometry" />
        </mxCell>
        <mxCell id="_SpvPNpIJ2IMHcFdNzPI-38" value="지역코드" style="ellipse;whiteSpace=wrap;html=1;align=center;fontStyle=4;" vertex="1" parent="1">
          <mxGeometry x="-160" y="585" width="100" height="40" as="geometry" />
        </mxCell>
        <mxCell id="_SpvPNpIJ2IMHcFdNzPI-40" value="" style="endArrow=none;html=1;rounded=0;entryX=0;entryY=0.5;entryDx=0;entryDy=0;exitX=1;exitY=0.5;exitDx=0;exitDy=0;" edge="1" parent="1" source="_SpvPNpIJ2IMHcFdNzPI-38" target="_SpvPNpIJ2IMHcFdNzPI-36">
          <mxGeometry relative="1" as="geometry">
            <mxPoint x="60" y="489.40999999999997" as="sourcePoint" />
            <mxPoint x="220" y="489.40999999999997" as="targetPoint" />
          </mxGeometry>
        </mxCell>
        <mxCell id="_SpvPNpIJ2IMHcFdNzPI-42" value="" style="endArrow=none;html=1;rounded=0;entryX=0;entryY=0.5;entryDx=0;entryDy=0;exitX=1;exitY=0.5;exitDx=0;exitDy=0;" edge="1" parent="1" source="_SpvPNpIJ2IMHcFdNzPI-37" target="_SpvPNpIJ2IMHcFdNzPI-36">
          <mxGeometry relative="1" as="geometry">
            <mxPoint x="70" y="410" as="sourcePoint" />
            <mxPoint x="220" y="409.40999999999997" as="targetPoint" />
          </mxGeometry>
        </mxCell>
        <mxCell id="_SpvPNpIJ2IMHcFdNzPI-43" value="제품" style="whiteSpace=wrap;html=1;align=center;" vertex="1" parent="1">
          <mxGeometry x="775" y="218" width="112" height="40" as="geometry" />
        </mxCell>
        <mxCell id="_SpvPNpIJ2IMHcFdNzPI-45" value="&lt;font color=&quot;#ff0000&quot;&gt;제품코드&lt;/font&gt;" style="ellipse;whiteSpace=wrap;html=1;align=center;fontStyle=4;" vertex="1" parent="1">
          <mxGeometry x="1015" y="128" width="112" height="40" as="geometry" />
        </mxCell>
        <mxCell id="_SpvPNpIJ2IMHcFdNzPI-46" value="제품명" style="ellipse;whiteSpace=wrap;html=1;align=center;" vertex="1" parent="1">
          <mxGeometry x="1025" y="248" width="112" height="40" as="geometry" />
        </mxCell>
        <mxCell id="_SpvPNpIJ2IMHcFdNzPI-47" value="제품구분" style="ellipse;whiteSpace=wrap;html=1;align=center;" vertex="1" parent="1">
          <mxGeometry x="1005" y="348" width="112" height="40" as="geometry" />
        </mxCell>
        <mxCell id="_SpvPNpIJ2IMHcFdNzPI-48" value="가격" style="ellipse;whiteSpace=wrap;html=1;align=center;" vertex="1" parent="1">
          <mxGeometry x="895" y="68" width="112" height="40" as="geometry" />
        </mxCell>
        <mxCell id="_SpvPNpIJ2IMHcFdNzPI-49" value="&lt;font color=&quot;#ff0000&quot;&gt;제품색상&lt;/font&gt;" style="ellipse;shape=doubleEllipse;margin=3;whiteSpace=wrap;html=1;align=center;" vertex="1" parent="1">
          <mxGeometry x="835" y="453" width="112" height="40" as="geometry" />
        </mxCell>
        <mxCell id="_SpvPNpIJ2IMHcFdNzPI-50" value="" style="endArrow=none;html=1;rounded=0;entryX=0.5;entryY=1;entryDx=0;entryDy=0;exitX=0.5;exitY=0;exitDx=0;exitDy=0;" edge="1" parent="1" source="_SpvPNpIJ2IMHcFdNzPI-43" target="_SpvPNpIJ2IMHcFdNzPI-48">
          <mxGeometry relative="1" as="geometry">
            <mxPoint x="535" y="418" as="sourcePoint" />
            <mxPoint x="695" y="418" as="targetPoint" />
          </mxGeometry>
        </mxCell>
        <mxCell id="_SpvPNpIJ2IMHcFdNzPI-51" value="" style="endArrow=none;html=1;rounded=0;entryX=0.5;entryY=0;entryDx=0;entryDy=0;exitX=0.5;exitY=1;exitDx=0;exitDy=0;" edge="1" parent="1" source="_SpvPNpIJ2IMHcFdNzPI-43" target="_SpvPNpIJ2IMHcFdNzPI-49">
          <mxGeometry relative="1" as="geometry">
            <mxPoint x="565" y="483" as="sourcePoint" />
            <mxPoint x="675" y="408" as="targetPoint" />
          </mxGeometry>
        </mxCell>
        <mxCell id="_SpvPNpIJ2IMHcFdNzPI-52" value="" style="endArrow=none;html=1;rounded=0;entryX=0;entryY=0.5;entryDx=0;entryDy=0;exitX=1;exitY=1;exitDx=0;exitDy=0;" edge="1" parent="1" source="_SpvPNpIJ2IMHcFdNzPI-43" target="_SpvPNpIJ2IMHcFdNzPI-47">
          <mxGeometry relative="1" as="geometry">
            <mxPoint x="885" y="238" as="sourcePoint" />
            <mxPoint x="725" y="448" as="targetPoint" />
          </mxGeometry>
        </mxCell>
        <mxCell id="_SpvPNpIJ2IMHcFdNzPI-53" value="" style="endArrow=none;html=1;rounded=0;exitX=1;exitY=0.75;exitDx=0;exitDy=0;entryX=0;entryY=0.5;entryDx=0;entryDy=0;" edge="1" parent="1" source="_SpvPNpIJ2IMHcFdNzPI-43" target="_SpvPNpIJ2IMHcFdNzPI-46">
          <mxGeometry relative="1" as="geometry">
            <mxPoint x="615" y="508" as="sourcePoint" />
            <mxPoint x="685" y="568" as="targetPoint" />
          </mxGeometry>
        </mxCell>
        <mxCell id="_SpvPNpIJ2IMHcFdNzPI-54" value="" style="endArrow=none;html=1;rounded=0;exitX=1;exitY=0.5;exitDx=0;exitDy=0;entryX=0;entryY=0.5;entryDx=0;entryDy=0;" edge="1" parent="1" source="_SpvPNpIJ2IMHcFdNzPI-43" target="_SpvPNpIJ2IMHcFdNzPI-45">
          <mxGeometry relative="1" as="geometry">
            <mxPoint x="615" y="513" as="sourcePoint" />
            <mxPoint x="1015" y="158" as="targetPoint" />
          </mxGeometry>
        </mxCell>
        <mxCell id="_SpvPNpIJ2IMHcFdNzPI-59" value="제품 색상" style="swimlane;fontStyle=0;childLayout=stackLayout;horizontal=1;startSize=26;horizontalStack=0;resizeParent=1;resizeParentMax=0;resizeLast=0;collapsible=1;marginBottom=0;align=center;fontSize=14;" vertex="1" parent="1">
          <mxGeometry x="805" y="548" width="172" height="116" as="geometry" />
        </mxCell>
        <mxCell id="_SpvPNpIJ2IMHcFdNzPI-60" value="흰, 빨" style="text;strokeColor=none;fillColor=none;spacingLeft=4;spacingRight=4;overflow=hidden;rotatable=0;points=[[0,0.5],[1,0.5]];portConstraint=eastwest;fontSize=12;whiteSpace=wrap;html=1;" vertex="1" parent="_SpvPNpIJ2IMHcFdNzPI-59">
          <mxGeometry y="26" width="172" height="30" as="geometry" />
        </mxCell>
        <mxCell id="_SpvPNpIJ2IMHcFdNzPI-61" value="녹, 검" style="text;strokeColor=none;fillColor=none;spacingLeft=4;spacingRight=4;overflow=hidden;rotatable=0;points=[[0,0.5],[1,0.5]];portConstraint=eastwest;fontSize=12;whiteSpace=wrap;html=1;" vertex="1" parent="_SpvPNpIJ2IMHcFdNzPI-59">
          <mxGeometry y="56" width="172" height="30" as="geometry" />
        </mxCell>
        <mxCell id="_SpvPNpIJ2IMHcFdNzPI-62" value="파, 노" style="text;strokeColor=none;fillColor=none;spacingLeft=4;spacingRight=4;overflow=hidden;rotatable=0;points=[[0,0.5],[1,0.5]];portConstraint=eastwest;fontSize=12;whiteSpace=wrap;html=1;" vertex="1" parent="_SpvPNpIJ2IMHcFdNzPI-59">
          <mxGeometry y="86" width="172" height="30" as="geometry" />
        </mxCell>
        <mxCell id="_SpvPNpIJ2IMHcFdNzPI-63" value="관리" style="shape=rhombus;perimeter=rhombusPerimeter;whiteSpace=wrap;html=1;align=center;" vertex="1" parent="1">
          <mxGeometry x="60" y="410" width="120" height="70" as="geometry" />
        </mxCell>
        <mxCell id="_SpvPNpIJ2IMHcFdNzPI-64" value="" style="endArrow=none;html=1;rounded=0;exitX=0.5;exitY=1;exitDx=0;exitDy=0;entryX=0.5;entryY=0;entryDx=0;entryDy=0;" edge="1" parent="1" source="_SpvPNpIJ2IMHcFdNzPI-63" target="_SpvPNpIJ2IMHcFdNzPI-36">
          <mxGeometry relative="1" as="geometry">
            <mxPoint x="290" y="400" as="sourcePoint" />
            <mxPoint x="450" y="400" as="targetPoint" />
          </mxGeometry>
        </mxCell>
        <mxCell id="_SpvPNpIJ2IMHcFdNzPI-65" value="" style="endArrow=none;html=1;rounded=0;exitX=0.5;exitY=1;exitDx=0;exitDy=0;entryX=0.5;entryY=0;entryDx=0;entryDy=0;" edge="1" parent="1" source="_SpvPNpIJ2IMHcFdNzPI-7" target="_SpvPNpIJ2IMHcFdNzPI-63">
          <mxGeometry relative="1" as="geometry">
            <mxPoint x="130" y="490" as="sourcePoint" />
            <mxPoint x="130" y="555" as="targetPoint" />
          </mxGeometry>
        </mxCell>
        <mxCell id="_SpvPNpIJ2IMHcFdNzPI-79" value="N" style="edgeLabel;html=1;align=center;verticalAlign=middle;resizable=0;points=[];" vertex="1" connectable="0" parent="_SpvPNpIJ2IMHcFdNzPI-65">
          <mxGeometry x="-0.0867" y="-3" relative="1" as="geometry">
            <mxPoint x="-7" y="23" as="offset" />
          </mxGeometry>
        </mxCell>
        <mxCell id="_SpvPNpIJ2IMHcFdNzPI-70" value="구매" style="shape=rhombus;perimeter=rhombusPerimeter;whiteSpace=wrap;html=1;align=center;" vertex="1" parent="1">
          <mxGeometry x="504" y="209" width="120" height="60" as="geometry" />
        </mxCell>
        <mxCell id="_SpvPNpIJ2IMHcFdNzPI-71" value="구매번호" style="ellipse;whiteSpace=wrap;html=1;align=center;fontStyle=4;" vertex="1" parent="1">
          <mxGeometry x="514" y="116" width="100" height="40" as="geometry" />
        </mxCell>
        <mxCell id="_SpvPNpIJ2IMHcFdNzPI-72" value="" style="endArrow=none;html=1;rounded=0;entryX=0.5;entryY=1;entryDx=0;entryDy=0;exitX=0.5;exitY=0;exitDx=0;exitDy=0;" edge="1" parent="1" source="_SpvPNpIJ2IMHcFdNzPI-70" target="_SpvPNpIJ2IMHcFdNzPI-71">
          <mxGeometry relative="1" as="geometry">
            <mxPoint x="424" y="319" as="sourcePoint" />
            <mxPoint x="584" y="319" as="targetPoint" />
          </mxGeometry>
        </mxCell>
        <mxCell id="_SpvPNpIJ2IMHcFdNzPI-74" value="수량" style="ellipse;whiteSpace=wrap;html=1;align=center;" vertex="1" parent="1">
          <mxGeometry x="448" y="359" width="100" height="40" as="geometry" />
        </mxCell>
        <mxCell id="_SpvPNpIJ2IMHcFdNzPI-75" value="구매일자" style="ellipse;whiteSpace=wrap;html=1;align=center;" vertex="1" parent="1">
          <mxGeometry x="574" y="359" width="100" height="40" as="geometry" />
        </mxCell>
        <mxCell id="_SpvPNpIJ2IMHcFdNzPI-76" value="" style="endArrow=none;html=1;rounded=0;entryX=0.5;entryY=0;entryDx=0;entryDy=0;exitX=0.5;exitY=1;exitDx=0;exitDy=0;" edge="1" parent="1" source="_SpvPNpIJ2IMHcFdNzPI-70" target="_SpvPNpIJ2IMHcFdNzPI-75">
          <mxGeometry relative="1" as="geometry">
            <mxPoint x="574" y="219" as="sourcePoint" />
            <mxPoint x="624" y="189" as="targetPoint" />
          </mxGeometry>
        </mxCell>
        <mxCell id="_SpvPNpIJ2IMHcFdNzPI-77" value="" style="endArrow=none;html=1;rounded=0;entryX=0.5;entryY=0;entryDx=0;entryDy=0;exitX=0.5;exitY=1;exitDx=0;exitDy=0;" edge="1" parent="1" source="_SpvPNpIJ2IMHcFdNzPI-70" target="_SpvPNpIJ2IMHcFdNzPI-74">
          <mxGeometry relative="1" as="geometry">
            <mxPoint x="574" y="279" as="sourcePoint" />
            <mxPoint x="634" y="369" as="targetPoint" />
          </mxGeometry>
        </mxCell>
        <mxCell id="_SpvPNpIJ2IMHcFdNzPI-80" value="1" style="edgeLabel;html=1;align=center;verticalAlign=middle;resizable=0;points=[];" vertex="1" connectable="0" parent="1">
          <mxGeometry x="120" y="350.00000000000006" as="geometry">
            <mxPoint x="-8" y="144" as="offset" />
          </mxGeometry>
        </mxCell>
        <mxCell id="_SpvPNpIJ2IMHcFdNzPI-81" value="" style="endArrow=none;html=1;rounded=0;exitX=1;exitY=0.5;exitDx=0;exitDy=0;entryX=0;entryY=0.5;entryDx=0;entryDy=0;" edge="1" parent="1" source="_SpvPNpIJ2IMHcFdNzPI-2" target="_SpvPNpIJ2IMHcFdNzPI-70">
          <mxGeometry relative="1" as="geometry">
            <mxPoint x="520" y="410" as="sourcePoint" />
            <mxPoint x="680" y="410" as="targetPoint" />
          </mxGeometry>
        </mxCell>
        <mxCell id="_SpvPNpIJ2IMHcFdNzPI-86" value="M" style="edgeLabel;html=1;align=center;verticalAlign=middle;resizable=0;points=[];" vertex="1" connectable="0" parent="_SpvPNpIJ2IMHcFdNzPI-81">
          <mxGeometry x="0.4739" y="-1" relative="1" as="geometry">
            <mxPoint x="43" y="-20" as="offset" />
          </mxGeometry>
        </mxCell>
        <mxCell id="_SpvPNpIJ2IMHcFdNzPI-82" value="" style="endArrow=none;html=1;rounded=0;exitX=1;exitY=0.5;exitDx=0;exitDy=0;entryX=0;entryY=0.5;entryDx=0;entryDy=0;" edge="1" parent="1" source="_SpvPNpIJ2IMHcFdNzPI-70" target="_SpvPNpIJ2IMHcFdNzPI-43">
          <mxGeometry relative="1" as="geometry">
            <mxPoint x="350" y="250" as="sourcePoint" />
            <mxPoint x="428" y="346" as="targetPoint" />
          </mxGeometry>
        </mxCell>
        <mxCell id="_SpvPNpIJ2IMHcFdNzPI-83" value="N" style="edgeLabel;html=1;align=center;verticalAlign=middle;resizable=0;points=[];" vertex="1" connectable="0" parent="1">
          <mxGeometry x="208" y="309.9988235294117" as="geometry">
            <mxPoint x="423" y="-89" as="offset" />
          </mxGeometry>
        </mxCell>
      </root>
    </mxGraphModel>
  </diagram>
</mxfile>
